<svg xmlns="http://www.w3.org/2000/svg" viewBox="0 0 700 440" font-family="sans-serif">
<rect width="700" height="440" fill="white"/>
<text x="275.0" y="30" text-anchor="middle" font-size="16" font-weight="600">Held-out validation eval — 2000 batches, best-AUPRC checkpoint</text>
<line x1="70" y1="50.0" x2="550" y2="50.0" stroke="#e0e0e0" stroke-width="1"/>
<text x="62" y="54.0" text-anchor="end" font-size="11" fill="#555">0.95</text>
<line x1="70" y1="116.0" x2="550" y2="116.0" stroke="#e0e0e0" stroke-width="1"/>
<text x="62" y="120.0" text-anchor="end" font-size="11" fill="#555">0.76</text>
<line x1="70" y1="182.0" x2="550" y2="182.0" stroke="#e0e0e0" stroke-width="1"/>
<text x="62" y="186.0" text-anchor="end" font-size="11" fill="#555">0.57</text>
<line x1="70" y1="248.0" x2="550" y2="248.0" stroke="#e0e0e0" stroke-width="1"/>
<text x="62" y="252.0" text-anchor="end" font-size="11" fill="#555">0.38</text>
<line x1="70" y1="314.0" x2="550" y2="314.0" stroke="#e0e0e0" stroke-width="1"/>
<text x="62" y="318.0" text-anchor="end" font-size="11" fill="#555">0.19</text>
<line x1="70" y1="380.0" x2="550" y2="380.0" stroke="#e0e0e0" stroke-width="1"/>
<text x="62" y="384.0" text-anchor="end" font-size="11" fill="#555">0.00</text>
<line x1="70" y1="380" x2="550" y2="380" stroke="#333"/>
<line x1="70" y1="50" x2="70" y2="380" stroke="#333"/>
<text x="190.0" y="402" text-anchor="middle" font-size="13" fill="#333">AUPRC</text>
<rect x="106.0" y="302.9" width="84.0" height="77.1" fill="#1f77b4"/>
<text x="148.0" y="296.9" text-anchor="middle" font-size="11" fill="#333">0.2227</text>
<rect x="190.0" y="298.6" width="84.0" height="81.4" fill="#ff7f0e"/>
<text x="232.0" y="292.6" text-anchor="middle" font-size="11" fill="#333">0.2352</text>
<text x="430.0" y="402" text-anchor="middle" font-size="13" fill="#333">Accuracy</text>
<rect x="346.0" y="114.5" width="84.0" height="265.5" fill="#1f77b4"/>
<text x="388.0" y="108.5" text-anchor="middle" font-size="11" fill="#333">0.7667</text>
<rect x="430.0" y="93.0" width="84.0" height="287.0" fill="#ff7f0e"/>
<text x="472.0" y="87.0" text-anchor="middle" font-size="11" fill="#333">0.8286</text>
<text transform="translate(20,275.0) rotate(-90)" text-anchor="middle" font-size="13" fill="#333">Value</text>
<rect x="570" y="70" width="16" height="10" fill="#1f77b4"/>
<text x="592" y="79" font-size="12" fill="#333">FiLM</text>
<rect x="570" y="94" width="16" height="10" fill="#ff7f0e"/>
<text x="592" y="103" font-size="12" fill="#333">Concat</text>
</svg>