<svg xmlns="http://www.w3.org/2000/svg" viewBox="0 0 820 440" font-family="sans-serif">
<rect width="820" height="440" fill="white"/>
<text x="410.0" y="30" text-anchor="middle" font-size="16" font-weight="600">Validation AUPRC per epoch (binary-only, training-time metric)</text>
<line x1="70" y1="50.0" x2="640" y2="50.0" stroke="#e0e0e0" stroke-width="1"/>
<text x="62" y="54.0" text-anchor="end" font-size="11" fill="#555">0.280</text>
<line x1="70" y1="116.0" x2="640" y2="116.0" stroke="#e0e0e0" stroke-width="1"/>
<text x="62" y="120.0" text-anchor="end" font-size="11" fill="#555">0.224</text>
<line x1="70" y1="182.0" x2="640" y2="182.0" stroke="#e0e0e0" stroke-width="1"/>
<text x="62" y="186.0" text-anchor="end" font-size="11" fill="#555">0.168</text>
<line x1="70" y1="248.0" x2="640" y2="248.0" stroke="#e0e0e0" stroke-width="1"/>
<text x="62" y="252.0" text-anchor="end" font-size="11" fill="#555">0.112</text>
<line x1="70" y1="314.0" x2="640" y2="314.0" stroke="#e0e0e0" stroke-width="1"/>
<text x="62" y="318.0" text-anchor="end" font-size="11" fill="#555">0.056</text>
<line x1="70" y1="380.0" x2="640" y2="380.0" stroke="#e0e0e0" stroke-width="1"/>
<text x="62" y="384.0" text-anchor="end" font-size="11" fill="#555">0.000</text>
<line x1="70.0" y1="50" x2="70.0" y2="380" stroke="#f0f0f0" stroke-width="1"/>
<text x="70.0" y="398" text-anchor="middle" font-size="11" fill="#555">1</text>
<line x1="110.71428571428572" y1="50" x2="110.71428571428572" y2="380" stroke="#f0f0f0" stroke-width="1"/>
<text x="110.71428571428572" y="398" text-anchor="middle" font-size="11" fill="#555">2</text>
<line x1="151.42857142857144" y1="50" x2="151.42857142857144" y2="380" stroke="#f0f0f0" stroke-width="1"/>
<text x="151.42857142857144" y="398" text-anchor="middle" font-size="11" fill="#555">3</text>
<line x1="192.14285714285714" y1="50" x2="192.14285714285714" y2="380" stroke="#f0f0f0" stroke-width="1"/>
<text x="192.14285714285714" y="398" text-anchor="middle" font-size="11" fill="#555">4</text>
<line x1="232.85714285714286" y1="50" x2="232.85714285714286" y2="380" stroke="#f0f0f0" stroke-width="1"/>
<text x="232.85714285714286" y="398" text-anchor="middle" font-size="11" fill="#555">5</text>
<line x1="273.57142857142856" y1="50" x2="273.57142857142856" y2="380" stroke="#f0f0f0" stroke-width="1"/>
<text x="273.57142857142856" y="398" text-anchor="middle" font-size="11" fill="#555">6</text>
<line x1="314.2857142857143" y1="50" x2="314.2857142857143" y2="380" stroke="#f0f0f0" stroke-width="1"/>
<text x="314.2857142857143" y="398" text-anchor="middle" font-size="11" fill="#555">7</text>
<line x1="355.0" y1="50" x2="355.0" y2="380" stroke="#f0f0f0" stroke-width="1"/>
<text x="355.0" y="398" text-anchor="middle" font-size="11" fill="#555">8</text>
<line x1="395.7142857142857" y1="50" x2="395.7142857142857" y2="380" stroke="#f0f0f0" stroke-width="1"/>
<text x="395.7142857142857" y="398" text-anchor="middle" font-size="11" fill="#555">9</text>
<line x1="436.42857142857144" y1="50" x2="436.42857142857144" y2="380" stroke="#f0f0f0" stroke-width="1"/>
<text x="436.42857142857144" y="398" text-anchor="middle" font-size="11" fill="#555">10</text>
<line x1="477.14285714285717" y1="50" x2="477.14285714285717" y2="380" stroke="#f0f0f0" stroke-width="1"/>
<text x="477.14285714285717" y="398" text-anchor="middle" font-size="11" fill="#555">11</text>
<line x1="517.8571428571429" y1="50" x2="517.8571428571429" y2="380" stroke="#f0f0f0" stroke-width="1"/>
<text x="517.8571428571429" y="398" text-anchor="middle" font-size="11" fill="#555">12</text>
<line x1="558.5714285714286" y1="50" x2="558.5714285714286" y2="380" stroke="#f0f0f0" stroke-width="1"/>
<text x="558.5714285714286" y="398" text-anchor="middle" font-size="11" fill="#555">13</text>
<line x1="599.2857142857143" y1="50" x2="599.2857142857143" y2="380" stroke="#f0f0f0" stroke-width="1"/>
<text x="599.2857142857143" y="398" text-anchor="middle" font-size="11" fill="#555">14</text>
<line x1="640.0" y1="50" x2="640.0" y2="380" stroke="#f0f0f0" stroke-width="1"/>
<text x="640.0" y="398" text-anchor="middle" font-size="11" fill="#555">15</text>
<line x1="70" y1="380" x2="640" y2="380" stroke="#333" stroke-width="1"/>
<line x1="70" y1="50" x2="70" y2="380" stroke="#333" stroke-width="1"/>
<line x1="70" y1="353.12857142857143" x2="640" y2="353.12857142857143" stroke="#888" stroke-width="1" stroke-dasharray="4,4"/>
<polyline points="70.0,219.3 110.7,168.4 151.4,149.9 192.1,140.8 232.9,151.2 273.6,168.1 314.3,137.7 355.0,135.7 395.7,118.1 436.4,129.6 477.1,125.4 517.9,118.1 558.6,110.8 599.3,131.1 640.0,131.3" fill="none" stroke="#1f77b4" stroke-width="2.5"/>
<circle cx="70.0" cy="219.3" r="4" fill="#1f77b4" stroke="white" stroke-width="1"/>
<circle cx="110.7" cy="168.4" r="4" fill="#1f77b4" stroke="white" stroke-width="1"/>
<circle cx="151.4" cy="149.9" r="4" fill="#1f77b4" stroke="white" stroke-width="1"/>
<circle cx="192.1" cy="140.8" r="4" fill="#1f77b4" stroke="white" stroke-width="1"/>
<circle cx="232.9" cy="151.2" r="4" fill="#1f77b4" stroke="white" stroke-width="1"/>
<circle cx="273.6" cy="168.1" r="4" fill="#1f77b4" stroke="white" stroke-width="1"/>
<circle cx="314.3" cy="137.7" r="4" fill="#1f77b4" stroke="white" stroke-width="1"/>
<circle cx="355.0" cy="135.7" r="4" fill="#1f77b4" stroke="white" stroke-width="1"/>
<circle cx="395.7" cy="118.1" r="4" fill="#1f77b4" stroke="white" stroke-width="1"/>
<circle cx="436.4" cy="129.6" r="4" fill="#1f77b4" stroke="white" stroke-width="1"/>
<circle cx="477.1" cy="125.4" r="4" fill="#1f77b4" stroke="white" stroke-width="1"/>
<circle cx="517.9" cy="118.1" r="4" fill="#1f77b4" stroke="white" stroke-width="1"/>
<circle cx="558.6" cy="110.8" r="4" fill="#1f77b4" stroke="white" stroke-width="1"/>
<circle cx="599.3" cy="131.1" r="4" fill="#1f77b4" stroke="white" stroke-width="1"/>
<circle cx="640.0" cy="131.3" r="4" fill="#1f77b4" stroke="white" stroke-width="1"/>
<polyline points="70.0,218.9 110.7,192.2 151.4,147.6 192.1,157.8 232.9,152.7 273.6,130.2 314.3,122.1 355.0,118.2 395.7,114.9 436.4,101.6 477.1,119.1 517.9,127.6 558.6,156.9 599.3,111.4 640.0,122.0" fill="none" stroke="#ff7f0e" stroke-width="2.5"/>
<circle cx="70.0" cy="218.9" r="4" fill="#ff7f0e" stroke="white" stroke-width="1"/>
<circle cx="110.7" cy="192.2" r="4" fill="#ff7f0e" stroke="white" stroke-width="1"/>
<circle cx="151.4" cy="147.6" r="4" fill="#ff7f0e" stroke="white" stroke-width="1"/>
<circle cx="192.1" cy="157.8" r="4" fill="#ff7f0e" stroke="white" stroke-width="1"/>
<circle cx="232.9" cy="152.7" r="4" fill="#ff7f0e" stroke="white" stroke-width="1"/>
<circle cx="273.6" cy="130.2" r="4" fill="#ff7f0e" stroke="white" stroke-width="1"/>
<circle cx="314.3" cy="122.1" r="4" fill="#ff7f0e" stroke="white" stroke-width="1"/>
<circle cx="355.0" cy="118.2" r="4" fill="#ff7f0e" stroke="white" stroke-width="1"/>
<circle cx="395.7" cy="114.9" r="4" fill="#ff7f0e" stroke="white" stroke-width="1"/>
<circle cx="436.4" cy="101.6" r="4" fill="#ff7f0e" stroke="white" stroke-width="1"/>
<circle cx="477.1" cy="119.1" r="4" fill="#ff7f0e" stroke="white" stroke-width="1"/>
<circle cx="517.9" cy="127.6" r="4" fill="#ff7f0e" stroke="white" stroke-width="1"/>
<circle cx="558.6" cy="156.9" r="4" fill="#ff7f0e" stroke="white" stroke-width="1"/>
<circle cx="599.3" cy="111.4" r="4" fill="#ff7f0e" stroke="white" stroke-width="1"/>
<circle cx="640.0" cy="122.0" r="4" fill="#ff7f0e" stroke="white" stroke-width="1"/>
<text x="320.0" y="428" text-anchor="middle" font-size="13" fill="#333">Epoch</text>
<text transform="translate(20,275.0) rotate(-90)" text-anchor="middle" font-size="13" fill="#333">Validation binding AUPRC</text>
<rect x="660" y="70" width="16" height="10" fill="#1f77b4"/>
<text x="682" y="79" font-size="12" fill="#333">FiLM</text>
<rect x="660" y="94" width="16" height="10" fill="#ff7f0e"/>
<text x="682" y="103" font-size="12" fill="#333">Concat</text>
<line x1="660" y1="123" x2="676" y2="123" stroke="#888" stroke-dasharray="4,4" stroke-width="2"/>
<text x="682" y="127" font-size="12" fill="#555">chance (pos rate)</text>
</svg>