<svg xmlns="http://www.w3.org/2000/svg" viewBox="0 0 820 440" font-family="sans-serif">
<rect width="820" height="440" fill="white"/>
<text x="410.0" y="30" text-anchor="middle" font-size="16" font-weight="600">Train + validation loss (FiLM, Concat)</text>
<line x1="70" y1="50.0" x2="640" y2="50.0" stroke="#e0e0e0" stroke-width="1"/>
<text x="62" y="54.0" text-anchor="end" font-size="11" fill="#555">0.623</text>
<line x1="70" y1="116.0" x2="640" y2="116.0" stroke="#e0e0e0" stroke-width="1"/>
<text x="62" y="120.0" text-anchor="end" font-size="11" fill="#555">0.567</text>
<line x1="70" y1="182.0" x2="640" y2="182.0" stroke="#e0e0e0" stroke-width="1"/>
<text x="62" y="186.0" text-anchor="end" font-size="11" fill="#555">0.512</text>
<line x1="70" y1="248.0" x2="640" y2="248.0" stroke="#e0e0e0" stroke-width="1"/>
<text x="62" y="252.0" text-anchor="end" font-size="11" fill="#555">0.457</text>
<line x1="70" y1="314.0" x2="640" y2="314.0" stroke="#e0e0e0" stroke-width="1"/>
<text x="62" y="318.0" text-anchor="end" font-size="11" fill="#555">0.402</text>
<line x1="70" y1="380.0" x2="640" y2="380.0" stroke="#e0e0e0" stroke-width="1"/>
<text x="62" y="384.0" text-anchor="end" font-size="11" fill="#555">0.346</text>
<line x1="70.0" y1="50" x2="70.0" y2="380" stroke="#f0f0f0" stroke-width="1"/>
<text x="70.0" y="398" text-anchor="middle" font-size="11" fill="#555">1</text>
<line x1="110.71428571428572" y1="50" x2="110.71428571428572" y2="380" stroke="#f0f0f0" stroke-width="1"/>
<text x="110.71428571428572" y="398" text-anchor="middle" font-size="11" fill="#555">2</text>
<line x1="151.42857142857144" y1="50" x2="151.42857142857144" y2="380" stroke="#f0f0f0" stroke-width="1"/>
<text x="151.42857142857144" y="398" text-anchor="middle" font-size="11" fill="#555">3</text>
<line x1="192.14285714285714" y1="50" x2="192.14285714285714" y2="380" stroke="#f0f0f0" stroke-width="1"/>
<text x="192.14285714285714" y="398" text-anchor="middle" font-size="11" fill="#555">4</text>
<line x1="232.85714285714286" y1="50" x2="232.85714285714286" y2="380" stroke="#f0f0f0" stroke-width="1"/>
<text x="232.85714285714286" y="398" text-anchor="middle" font-size="11" fill="#555">5</text>
<line x1="273.57142857142856" y1="50" x2="273.57142857142856" y2="380" stroke="#f0f0f0" stroke-width="1"/>
<text x="273.57142857142856" y="398" text-anchor="middle" font-size="11" fill="#555">6</text>
<line x1="314.2857142857143" y1="50" x2="314.2857142857143" y2="380" stroke="#f0f0f0" stroke-width="1"/>
<text x="314.2857142857143" y="398" text-anchor="middle" font-size="11" fill="#555">7</text>
<line x1="355.0" y1="50" x2="355.0" y2="380" stroke="#f0f0f0" stroke-width="1"/>
<text x="355.0" y="398" text-anchor="middle" font-size="11" fill="#555">8</text>
<line x1="395.7142857142857" y1="50" x2="395.7142857142857" y2="380" stroke="#f0f0f0" stroke-width="1"/>
<text x="395.7142857142857" y="398" text-anchor="middle" font-size="11" fill="#555">9</text>
<line x1="436.42857142857144" y1="50" x2="436.42857142857144" y2="380" stroke="#f0f0f0" stroke-width="1"/>
<text x="436.42857142857144" y="398" text-anchor="middle" font-size="11" fill="#555">10</text>
<line x1="477.14285714285717" y1="50" x2="477.14285714285717" y2="380" stroke="#f0f0f0" stroke-width="1"/>
<text x="477.14285714285717" y="398" text-anchor="middle" font-size="11" fill="#555">11</text>
<line x1="517.8571428571429" y1="50" x2="517.8571428571429" y2="380" stroke="#f0f0f0" stroke-width="1"/>
<text x="517.8571428571429" y="398" text-anchor="middle" font-size="11" fill="#555">12</text>
<line x1="558.5714285714286" y1="50" x2="558.5714285714286" y2="380" stroke="#f0f0f0" stroke-width="1"/>
<text x="558.5714285714286" y="398" text-anchor="middle" font-size="11" fill="#555">13</text>
<line x1="599.2857142857143" y1="50" x2="599.2857142857143" y2="380" stroke="#f0f0f0" stroke-width="1"/>
<text x="599.2857142857143" y="398" text-anchor="middle" font-size="11" fill="#555">14</text>
<line x1="640.0" y1="50" x2="640.0" y2="380" stroke="#f0f0f0" stroke-width="1"/>
<text x="640.0" y="398" text-anchor="middle" font-size="11" fill="#555">15</text>
<line x1="70" y1="380" x2="640" y2="380" stroke="#333" stroke-width="1"/>
<line x1="70" y1="50" x2="70" y2="380" stroke="#333" stroke-width="1"/>
<polyline points="70.0,141.4 110.7,198.5 151.4,213.0 192.1,220.6 232.9,228.9 273.6,232.3 314.3,243.6 355.0,243.4 395.7,247.0 436.4,244.2 477.1,243.9 517.9,248.9 558.6,247.3 599.3,252.3 640.0,255.4" fill="none" stroke="#1f77b4" stroke-width="2.5"/>
<circle cx="70.0" cy="141.4" r="4" fill="#1f77b4" stroke="white" stroke-width="1"/>
<circle cx="110.7" cy="198.5" r="4" fill="#1f77b4" stroke="white" stroke-width="1"/>
<circle cx="151.4" cy="213.0" r="4" fill="#1f77b4" stroke="white" stroke-width="1"/>
<circle cx="192.1" cy="220.6" r="4" fill="#1f77b4" stroke="white" stroke-width="1"/>
<circle cx="232.9" cy="228.9" r="4" fill="#1f77b4" stroke="white" stroke-width="1"/>
<circle cx="273.6" cy="232.3" r="4" fill="#1f77b4" stroke="white" stroke-width="1"/>
<circle cx="314.3" cy="243.6" r="4" fill="#1f77b4" stroke="white" stroke-width="1"/>
<circle cx="355.0" cy="243.4" r="4" fill="#1f77b4" stroke="white" stroke-width="1"/>
<circle cx="395.7" cy="247.0" r="4" fill="#1f77b4" stroke="white" stroke-width="1"/>
<circle cx="436.4" cy="244.2" r="4" fill="#1f77b4" stroke="white" stroke-width="1"/>
<circle cx="477.1" cy="243.9" r="4" fill="#1f77b4" stroke="white" stroke-width="1"/>
<circle cx="517.9" cy="248.9" r="4" fill="#1f77b4" stroke="white" stroke-width="1"/>
<circle cx="558.6" cy="247.3" r="4" fill="#1f77b4" stroke="white" stroke-width="1"/>
<circle cx="599.3" cy="252.3" r="4" fill="#1f77b4" stroke="white" stroke-width="1"/>
<circle cx="640.0" cy="255.4" r="4" fill="#1f77b4" stroke="white" stroke-width="1"/>
<polyline points="70.0,104.6 110.7,166.1 151.4,192.3 192.1,204.7 232.9,214.8 273.6,224.3 314.3,235.6 355.0,235.2 395.7,239.8 436.4,242.3 477.1,241.0 517.9,247.7 558.6,246.7 599.3,249.5 640.0,250.4" fill="none" stroke="#ff7f0e" stroke-width="2.5"/>
<circle cx="70.0" cy="104.6" r="4" fill="#ff7f0e" stroke="white" stroke-width="1"/>
<circle cx="110.7" cy="166.1" r="4" fill="#ff7f0e" stroke="white" stroke-width="1"/>
<circle cx="151.4" cy="192.3" r="4" fill="#ff7f0e" stroke="white" stroke-width="1"/>
<circle cx="192.1" cy="204.7" r="4" fill="#ff7f0e" stroke="white" stroke-width="1"/>
<circle cx="232.9" cy="214.8" r="4" fill="#ff7f0e" stroke="white" stroke-width="1"/>
<circle cx="273.6" cy="224.3" r="4" fill="#ff7f0e" stroke="white" stroke-width="1"/>
<circle cx="314.3" cy="235.6" r="4" fill="#ff7f0e" stroke="white" stroke-width="1"/>
<circle cx="355.0" cy="235.2" r="4" fill="#ff7f0e" stroke="white" stroke-width="1"/>
<circle cx="395.7" cy="239.8" r="4" fill="#ff7f0e" stroke="white" stroke-width="1"/>
<circle cx="436.4" cy="242.3" r="4" fill="#ff7f0e" stroke="white" stroke-width="1"/>
<circle cx="477.1" cy="241.0" r="4" fill="#ff7f0e" stroke="white" stroke-width="1"/>
<circle cx="517.9" cy="247.7" r="4" fill="#ff7f0e" stroke="white" stroke-width="1"/>
<circle cx="558.6" cy="246.7" r="4" fill="#ff7f0e" stroke="white" stroke-width="1"/>
<circle cx="599.3" cy="249.5" r="4" fill="#ff7f0e" stroke="white" stroke-width="1"/>
<circle cx="640.0" cy="250.4" r="4" fill="#ff7f0e" stroke="white" stroke-width="1"/>
<polyline points="70.0,85.4 110.7,256.7 151.4,171.6 192.1,273.0 232.9,281.5 273.6,175.0 314.3,229.3 355.0,279.2 395.7,358.2 436.4,293.1 477.1,249.6 517.9,291.1 558.6,273.5 599.3,240.3 640.0,219.4" fill="none" stroke="#2ca02c" stroke-width="2.5"/>
<circle cx="70.0" cy="85.4" r="4" fill="#2ca02c" stroke="white" stroke-width="1"/>
<circle cx="110.7" cy="256.7" r="4" fill="#2ca02c" stroke="white" stroke-width="1"/>
<circle cx="151.4" cy="171.6" r="4" fill="#2ca02c" stroke="white" stroke-width="1"/>
<circle cx="192.1" cy="273.0" r="4" fill="#2ca02c" stroke="white" stroke-width="1"/>
<circle cx="232.9" cy="281.5" r="4" fill="#2ca02c" stroke="white" stroke-width="1"/>
<circle cx="273.6" cy="175.0" r="4" fill="#2ca02c" stroke="white" stroke-width="1"/>
<circle cx="314.3" cy="229.3" r="4" fill="#2ca02c" stroke="white" stroke-width="1"/>
<circle cx="355.0" cy="279.2" r="4" fill="#2ca02c" stroke="white" stroke-width="1"/>
<circle cx="395.7" cy="358.2" r="4" fill="#2ca02c" stroke="white" stroke-width="1"/>
<circle cx="436.4" cy="293.1" r="4" fill="#2ca02c" stroke="white" stroke-width="1"/>
<circle cx="477.1" cy="249.6" r="4" fill="#2ca02c" stroke="white" stroke-width="1"/>
<circle cx="517.9" cy="291.1" r="4" fill="#2ca02c" stroke="white" stroke-width="1"/>
<circle cx="558.6" cy="273.5" r="4" fill="#2ca02c" stroke="white" stroke-width="1"/>
<circle cx="599.3" cy="240.3" r="4" fill="#2ca02c" stroke="white" stroke-width="1"/>
<circle cx="640.0" cy="219.4" r="4" fill="#2ca02c" stroke="white" stroke-width="1"/>
<text x="320.0" y="428" text-anchor="middle" font-size="13" fill="#333">Epoch</text>
<text transform="translate(20,275.0) rotate(-90)" text-anchor="middle" font-size="13" fill="#333">Binary cross-entropy loss</text>
<rect x="660" y="70" width="16" height="10" fill="#1f77b4"/>
<text x="682" y="79" font-size="12" fill="#333">FiLM train</text>
<rect x="660" y="94" width="16" height="10" fill="#ff7f0e"/>
<text x="682" y="103" font-size="12" fill="#333">Concat train</text>
<rect x="660" y="118" width="16" height="10" fill="#2ca02c"/>
<text x="682" y="127" font-size="12" fill="#333">FiLM valid</text>
</svg>